<?xml version="1.0" encoding="UTF-8"?>
<svg width="100px" height="100px" viewBox="0 0 100 100" version="1.1" xmlns="http://www.w3.org/2000/svg" xmlns:xlink="http://www.w3.org/1999/xlink">
    <!-- Generator: Sketch 48.2 (47327) - http://www.bohemiancoding.com/sketch -->
    <title>email</title>
    <desc>Created with Sketch.</desc>
    <defs></defs>
    <g id="Page-1" stroke="none" stroke-width="1" fill="none" fill-rule="evenodd">
        <g id="email" fill="#877D78" fill-rule="nonzero">
            <path d="M72.5555556,29 L27.4444444,29 C23.8871111,29 21,31.8947692 21,35.4615385 L21,64.5384615 C21,68.1052308 23.8871111,71 27.4444444,71 L72.5555556,71 C76.1128889,71 79,68.1052308 79,64.5384615 L79,35.4615385 C79,31.8947692 76.1128889,29 72.5555556,29 Z M41.7566344,53 L46.97529,57.5614988 C47.9688543,58.4281835 49.2262832,58.8582677 50.5,58.8582677 C51.7737168,58.8582677 53.0311457,58.4249253 54.02471,57.5614988 L59.2433656,53 L59.1228349,53.1205539 L71,65 L30,65 L41.8771651,53.1205539 L41.7566344,53 Z M27,62 L27,40 L39,50.2653635 L27,62 Z M61,50.2699259 L73,40 L73,62 L61,50.2699259 Z M72,35 L72,35.6871166 L50.8628571,54.5141104 C50.1332143,55.1619632 48.8667857,55.1619632 48.1371429,54.5141104 L27,35.6871166 L27,35 L72,35 Z M50,0 C22.2916667,0 0,22.2916667 0,50 C0,77.7083333 22.2916667,100 50,100 C77.7083333,100 100,77.7083333 100,50 C100,22.2916667 77.7083333,0 50,0 Z M50,89.5833333 C28.125,89.5833333 10.4166667,71.875 10.4166667,50 C10.4166667,28.125 28.125,10.4166667 50,10.4166667 C71.875,10.4166667 89.5833333,28.125 89.5833333,50 C89.5833333,71.875 71.875,89.5833333 50,89.5833333 Z" id="Shape"></path>
        </g>
    </g>
</svg>