<?xml version="1.0" encoding="UTF-8"?>
<svg width="100px" height="100px" viewBox="0 0 100 100" version="1.1" xmlns="http://www.w3.org/2000/svg" xmlns:xlink="http://www.w3.org/1999/xlink">
    <!-- Generator: Sketch 48.2 (47327) - http://www.bohemiancoding.com/sketch -->
    <title>linkedIn</title>
    <desc>Created with Sketch.</desc>
    <defs></defs>
    <g id="Page-1" stroke="none" stroke-width="1" fill="none" fill-rule="evenodd">
        <g id="linkedIn" fill="#4A6846" fill-rule="nonzero">
            <g id="in" transform="translate(25.000000, 25.000000)">
                <path d="M17.9166667,16.875 L27.7083333,16.875 L27.7083333,21.875 C29.1666667,19.375 32.5,16.875 37.5,16.875 C47.9166667,16.875 48.9583333,22.9166667 48.9583333,31.6666667 L48.9583333,49.7916667 L39.1666667,49.7916667 L39.1666667,33.3333333 C39.1666667,29.5833333 39.375,25.2083333 34.1666667,25.2083333 C27.5,25.2083333 27.5,29.1666667 27.5,33.3333333 L27.5,49.7916667 L17.7083333,49.7916667 L17.9166667,16.875 Z" id="n_1_"></path>
                <rect id="_x7C__1_" x="1.66666667" y="16.875" width="9.79166667" height="32.9166667"></rect>
                <circle id="_x28____x29__1_" cx="6.45833333" cy="6.04166667" r="5.83333333"></circle>
            </g>
            <path d="M50,0 C22.2916667,0 0,22.2916667 0,50 C0,77.7083333 22.2916667,100 50,100 C77.7083333,100 100,77.7083333 100,50 C100,22.2916667 77.7083333,0 50,0 Z M50,89.5833333 C28.125,89.5833333 10.4166667,71.875 10.4166667,50 C10.4166667,28.125 28.125,10.4166667 50,10.4166667 C71.875,10.4166667 89.5833333,28.125 89.5833333,50 C89.5833333,71.875 71.875,89.5833333 50,89.5833333 Z" id="Shape"></path>
        </g>
    </g>
</svg>