<?xml version="1.0" encoding="UTF-8"?>
<svg width="100px" height="100px" viewBox="0 0 100 100" version="1.1" xmlns="http://www.w3.org/2000/svg" xmlns:xlink="http://www.w3.org/1999/xlink">
    <!-- Generator: Sketch 48.2 (47327) - http://www.bohemiancoding.com/sketch -->
    <title>close</title>
    <desc>Created with Sketch.</desc>
    <defs></defs>
    <g id="Page-1" stroke="none" stroke-width="1" fill="none" fill-rule="evenodd">
        <g id="close" fill="#877D78" fill-rule="nonzero">
            <path d="M97.0207254,83.8341969 L63.1865285,50 L97.0207254,16.1658031 C100.673575,12.5129534 100.673575,6.63212435 97.0207254,2.97927461 C93.3678756,-0.67357513 87.4870466,-0.67357513 83.8341969,2.97927461 L50,36.8134715 L16.1658031,2.97927461 C12.5129534,-0.67357513 6.63212435,-0.67357513 2.97927461,2.97927461 C-0.67357513,6.63212435 -0.67357513,12.5129534 2.97927461,16.1658031 L36.8134715,50 L2.97927461,83.8341969 C-0.67357513,87.4870466 -0.67357513,93.3678756 2.97927461,97.0207254 C6.63212435,100.673575 12.5129534,100.673575 16.1658031,97.0207254 L50,63.1865285 L83.8341969,97.0207254 C87.4870466,100.673575 93.3678756,100.673575 97.0207254,97.0207254 C100.647668,93.3678756 100.647668,87.4611399 97.0207254,83.8341969 Z" id="Shape"></path>
        </g>
    </g>
</svg>